HIERARCHY
ROOT hip
{
	OFFSET 0.000000 0.000000 0.000000 
	CHANNELS 6 Xposition Yposition Zposition Xrotation Zrotation Yrotation
	JOINT abdomen
	{
		OFFSET 0.000000 3.402643 0.000000 
		CHANNELS 3 Xrotation Zrotation Yrotation
		JOINT chest
		{
			OFFSET 0.000000 8.438565 -0.680529 
			CHANNELS 3 Xrotation Zrotation Yrotation
			JOINT neck
			{
				OFFSET 0.000000 10.207942 -0.272212 
				CHANNELS 3 Xrotation Zrotation Yrotation
				JOINT head
				{
					OFFSET 0.000000 3.130431 0.000000 
					CHANNELS 3 Xrotation Zrotation Yrotation
					End Site
					{
						OFFSET 0.000000 3.130435 0.000000 
					}
				}
			}
			JOINT lCollar
			{
				OFFSET 3.470700 6.669187 -0.816635 
				CHANNELS 3 Yrotation Zrotation Xrotation
				JOINT lShldr
				{
					OFFSET 3.198488 0.000000 0.000000 
					CHANNELS 3 Zrotation Yrotation Xrotation
					JOINT lForeArm
					{
						OFFSET 10.139888 0.000000 0.000000 
						CHANNELS 3 Yrotation Zrotation Xrotation
						JOINT lHand
						{
							OFFSET 8.370511 0.000000 0.000000 
							CHANNELS 3 Zrotation Yrotation Xrotation
							End Site
							{
								OFFSET 4.083176 0.000000 0.000000 
							}
						}
					}
				}
			}
			JOINT rCollar
			{
				OFFSET -3.470700 6.669187 -0.816635 
				CHANNELS 3 Yrotation Zrotation Xrotation
				JOINT rShldr
				{
					OFFSET -3.198488 0.000000 0.000000 
					CHANNELS 3 Zrotation Yrotation Xrotation
					JOINT rForeArm
					{
						OFFSET -10.139888 0.000000 0.000000 
						CHANNELS 3 Yrotation Zrotation Xrotation
						JOINT rHand
						{
							OFFSET -8.370511 0.000000 0.000000 
							CHANNELS 3 Zrotation Yrotation Xrotation
							End Site
							{
								OFFSET -4.083176 0.000000 0.000000 
							}
						}
					}
				}
			}
		}
	}
	JOINT lThigh
	{
		OFFSET 5.308129 -1.633274 1.361059 
		CHANNELS 3 Xrotation Zrotation Yrotation
		JOINT lShin
		{
			OFFSET -2.041588 -20.007561 0.000000 
			CHANNELS 3 Xrotation Zrotation Yrotation
			JOINT lFoot
			{
				OFFSET 0.000000 -19.190928 -1.224953 
				CHANNELS 3 Xrotation Yrotation Zrotation
				End Site
				{
					OFFSET 0.000000 -2.449906 4.627600 
				}
			}
		}
	}
	JOINT rThigh
	{
		OFFSET -5.308129 -1.633274 1.361059 
		CHANNELS 3 Xrotation Zrotation Yrotation
		JOINT rShin
		{
			OFFSET 2.041588 -20.007561 0.000000 
			CHANNELS 3 Xrotation Zrotation Yrotation
			JOINT rFoot
			{
				OFFSET 0.000000 -19.190928 -1.224953 
				CHANNELS 3 Xrotation Yrotation Zrotation
				End Site
				{
					OFFSET 0.000000 -2.449906 4.627600 
				}
			}
		}
	}
}
MOTION
Frames: 19
Frame Time: 0.033333
-2.177930 48.354687 1.965334 2.812500 -1.943359 -38.974941 36.780975 -10.480740 -3.864411 -28.261721 11.328125 5.761719 51.063168 8.107644 2.471410 -77.783203 -8.144532 2.490234 2.000000 -2.000000 0.000000 -7.050782 -25.117189 -51.718758 -96.429245 -0.046432 -3.201473 53.927715 20.229498 -5.208009 -2.000000 2.000000 0.000000 41.484375 -35.791016 -66.675629 118.504120 -1.755577 -2.826865 -64.965080 -9.642801 18.249846 -27.503229 18.519573 8.747912 20.187117 -4.983195 -1.936772 8.886745 10.523913 -13.699479 -31.813635 -13.172276 -8.446266 60.993465 2.480573 3.824031 21.224096 -17.761204 24.936825 
-4.355872 47.882000 3.930668 2.812500 -0.175781 -39.755886 36.527233 -10.962277 -5.531773 -28.466797 10.625001 5.537109 51.063168 8.107644 2.471410 -76.103516 -7.773438 1.601563 2.000000 -2.000000 0.000000 -9.619140 -37.392578 -53.921947 -86.776588 -0.427952 -3.032661 38.998695 27.878595 -12.394960 -2.000000 2.000000 0.000000 57.841797 -33.417969 -74.448730 114.976341 -1.584916 -3.070930 -55.174156 -24.582827 5.348727 -30.916142 19.783852 6.371830 29.869986 -4.615330 -2.715057 5.603001 11.022067 -15.988275 -32.846832 -12.224675 -4.418289 61.698593 2.431723 3.832397 18.237570 -15.662971 23.596758 
-6.556667 47.299023 5.922895 1.054688 -0.878904 -40.468987 36.418495 -11.527912 -7.032362 -28.652344 9.931641 5.148169 51.063168 8.107644 2.471410 -74.121094 -7.734374 1.201172 2.000000 -2.000000 0.000000 -11.357421 -34.912109 -53.618870 -86.762245 -0.203874 -2.879432 34.036713 30.586044 -14.031221 -2.000000 2.000000 0.000000 69.316406 -33.583984 -78.521027 112.357666 -1.296385 -2.985799 -44.020443 -33.835545 -7.525437 -31.546503 20.786499 3.701197 38.865501 -4.025496 -3.310919 5.081633 11.179296 -17.292845 -33.871571 -10.887212 -0.882466 62.541931 2.167857 4.064569 15.261877 -14.503649 22.173775 
-8.757475 46.747559 7.915122 -0.722656 -1.425781 -40.947266 36.163567 -12.141018 -8.798258 -28.837893 9.238281 4.746094 51.063168 8.107644 2.471410 -72.128906 -7.519531 0.576172 2.000000 -2.000000 0.000000 -13.251953 -32.607422 -55.234379 -86.934212 -0.225212 -2.741299 29.052910 33.049747 -16.062086 -2.000000 2.000000 0.000000 79.921875 -35.000000 -81.396484 109.903099 -1.176983 -2.851777 -29.029655 -40.749485 -24.176081 -32.438892 21.736683 0.720994 48.360321 -3.594312 -3.804924 3.565040 10.739774 -18.565752 -34.612778 -9.686185 2.422797 63.396839 1.572179 4.144707 12.781562 -12.193681 21.518770 
-10.953702 45.896732 9.901968 -3.701171 -3.515625 -41.455681 35.845234 -12.585094 -10.151785 -28.681641 8.535156 4.589844 51.063168 8.107644 2.471410 -68.515625 -8.681641 -0.069834 2.000000 -2.000000 0.000000 -18.183594 -18.701174 -60.878902 -95.557610 -0.177852 -3.105869 34.712406 32.152962 -10.676254 -2.000000 2.000000 0.000000 77.167969 -39.746094 -79.557022 110.786606 -1.206385 -3.019706 -26.742033 -41.242123 -25.286509 -30.321081 22.743380 -2.498134 56.436073 -2.855804 -4.293724 4.759355 9.975826 -18.905653 -33.830902 -8.573054 4.693701 66.893593 1.280018 4.218012 13.083518 -11.331348 21.121698 
-13.149901 44.974991 11.888812 -6.552734 -5.791016 -41.905285 35.690620 -13.115284 -11.361773 -28.691408 7.656250 4.218750 51.063168 8.107644 2.471410 -64.892586 -9.843749 -0.820313 2.000000 -2.000000 0.000000 -24.199219 -5.136719 -67.334862 -104.482719 0.817956 -2.801817 39.526340 31.397902 -6.172199 -2.000000 2.000000 0.000000 73.222664 -44.765625 -76.334999 111.651077 -1.235479 -2.855160 -24.695644 -42.077946 -25.917402 -28.435905 23.836845 -5.444590 64.317085 -2.007441 -4.500202 6.270423 8.709891 -19.697485 -33.206951 -7.519177 7.315284 70.067261 1.210908 4.615666 14.118441 -10.112981 21.347029 
-15.314165 43.879932 13.837956 -9.423828 -8.339844 -42.081497 35.007504 -13.443434 -11.491290 -28.007814 6.757813 4.296875 51.063168 8.107644 2.471410 -62.548832 -11.171873 -1.562500 2.000000 -2.000000 0.000000 -28.710939 10.751954 -68.886719 -110.292786 1.042754 -2.805256 42.700642 32.383064 -4.850415 -2.000000 2.000000 0.000000 64.248047 -50.468750 -71.113281 113.589218 -1.303878 -3.025345 -27.572083 -41.206284 -21.000237 -25.496384 24.383608 -6.780104 70.959267 -1.461899 -4.696271 10.688116 8.770113 -19.633249 -30.141441 -6.669504 8.198946 76.374619 0.595867 4.815315 18.182743 -9.571924 22.008774 
-17.478312 42.461868 15.787218 -12.529297 -10.654297 -42.158203 34.372871 -13.852572 -11.880098 -27.138674 5.869141 4.355469 51.063168 8.107644 2.471410 -60.000000 -12.519530 -2.441407 2.000000 -2.000000 0.000000 -31.933594 22.285156 -64.625198 -116.081985 1.416050 -2.778081 46.096584 33.278313 -3.833567 -2.000000 2.000000 0.000000 52.675781 -55.673828 -62.937756 115.694458 -1.341591 -2.880853 -30.427353 -40.243935 -16.365738 -23.028419 24.993469 -8.160120 77.293076 -1.082207 -4.924169 15.252282 9.529568 -19.831953 -27.215431 -5.664008 8.953660 82.508392 0.039071 4.827589 22.731333 -8.425488 22.712698 
-19.583099 41.169876 17.666470 -14.980468 -12.607423 -42.209164 32.957626 -14.223897 -10.190837 -25.576172 4.785156 4.971447 51.063168 8.107644 2.471410 -61.035156 -12.050779 -3.330079 2.000000 -2.000000 0.000000 -21.054688 33.769531 -52.734375 -118.368736 1.472022 -2.488237 47.061779 36.264023 -6.354186 -2.000000 2.000000 0.000000 34.980465 -65.517578 -48.828129 117.980057 -1.408706 -2.904290 -31.358376 -40.644150 -15.718833 -21.324156 24.206024 -9.796584 81.487991 -0.692161 -4.946269 19.992781 10.447042 -20.647709 -24.594942 -5.839313 9.084432 87.214363 -0.625016 4.903246 26.701399 -7.267084 23.219603 
-21.687883 39.688782 19.545837 -17.265623 -14.316405 -42.053196 31.650192 -14.406323 -8.451159 -24.013674 3.505859 5.341797 51.063168 8.107644 2.471410 -62.080082 -11.748046 -4.199220 2.000000 -2.000000 0.000000 -1.914063 41.132813 -37.529301 -121.181831 1.401780 -2.855237 47.672596 39.264526 -8.629596 -2.000000 2.000000 0.000000 4.375000 -71.210938 -23.104948 120.270248 -1.486555 -2.742815 -32.244591 -40.828712 -15.333098 -19.631018 23.343908 -10.962889 85.514610 -0.331545 -4.981719 24.992863 11.583138 -21.259991 -21.957930 -6.015153 9.070203 91.738731 -1.220226 4.602303 31.325071 -6.035278 23.758051 
-23.677181 38.577976 21.276625 -17.968750 -13.935548 -41.445313 30.314337 -14.937968 -7.514266 -23.496096 3.154297 5.156250 51.063168 8.107644 2.471410 -64.443359 -10.419922 -3.066406 2.000000 -2.000000 0.000000 -0.673828 44.042969 -34.033203 -122.222435 1.781045 -2.388922 47.843643 38.871120 -9.582399 -2.000000 2.000000 0.000000 9.833985 -72.724609 -24.413624 120.271652 -1.454482 -2.789846 -34.214458 -38.909538 -14.370925 -18.334610 21.695417 -12.415188 88.163452 -0.302538 -4.999279 29.979456 13.220875 -23.049957 -20.150858 -6.171327 8.527802 94.546432 -1.474506 4.531264 35.721409 -5.616205 24.171436 
-25.666479 37.222950 23.007412 -18.466797 -13.535156 -40.910492 28.756670 -15.543054 -6.436164 -22.812500 2.607422 5.126954 51.063168 8.107644 2.471410 -66.601563 -9.111327 -1.894532 2.000000 -2.000000 0.000000 0.791016 46.533134 -30.588589 -123.108025 1.640712 -2.615139 48.953323 37.815819 -9.522110 -2.000000 2.000000 0.000000 17.275391 -74.248047 -27.782837 120.094749 -1.476241 -2.751996 -36.036816 -36.714600 -14.342733 -17.235888 20.155954 -14.185691 90.972221 -0.254288 -5.170310 35.038258 14.232854 -25.002863 -18.888681 -6.502575 8.182467 97.346642 -1.747688 4.898023 40.405899 -5.597208 24.932255 
-27.316727 35.229797 24.326822 -16.328125 -11.171875 -42.871094 27.230604 -16.227291 -5.568360 -22.460939 2.421875 4.951172 51.063168 8.107644 2.471410 -72.304688 -8.828124 1.250000 2.000000 -2.000000 0.000000 -20.371094 45.341793 -42.041016 -122.241081 1.441768 -2.672016 49.862869 32.878838 -6.902562 -2.000000 2.000000 0.000000 60.947266 -70.585938 -60.683041 118.337318 -1.407431 -2.757783 -38.312435 -32.124550 -14.519106 -17.046686 19.323551 -15.082369 93.246849 0.125976 -5.147945 38.236286 14.118360 -25.310728 -21.967918 -5.322060 9.296765 101.556099 -1.962340 4.747561 46.075325 -4.896101 26.452976 
-28.966972 33.008137 25.646229 -14.238280 -8.886718 -44.571819 25.658108 -16.822424 -4.463804 -22.119141 2.080078 4.736329 51.063168 8.107644 2.471410 -77.988281 -8.261718 4.521485 2.000000 -2.000000 0.000000 -38.632813 40.234375 -51.416019 -121.350578 1.581651 -2.621482 50.034897 27.752548 -4.703879 -2.000000 2.000000 0.000000 85.927734 -61.425785 -74.813263 116.579475 -1.455357 -3.112329 -40.526447 -28.005203 -14.965604 -16.634430 18.834082 -16.212921 95.353302 0.311646 -5.103686 41.585590 13.718757 -25.326765 -24.983961 -4.014024 10.497654 105.241066 -1.965177 4.733305 51.876514 -4.577700 28.463778 
-30.143703 31.401056 26.543739 -10.966796 -5.537109 -48.350552 24.470093 -17.472248 -3.630652 -22.119141 1.904297 4.541016 51.063168 8.107644 2.471410 -86.679688 -6.591796 7.841798 2.000000 -2.000000 0.000000 -48.349609 35.410156 -51.459187 -118.016914 1.472588 -2.478492 50.382347 23.808262 -2.237794 -2.000000 2.000000 0.000000 95.058594 -50.673824 -74.658203 113.603416 -1.032192 -3.156304 -43.168404 -24.405245 -14.139156 -18.357153 20.760471 -16.209908 97.474289 0.310797 -5.132132 40.900944 12.023320 -19.832270 -28.882254 -3.164302 11.556309 108.743568 -2.609868 4.224416 52.448685 -4.026543 27.569632 
-31.320435 29.738777 27.441124 -8.115233 -1.923828 -51.777672 23.465126 -17.866556 -2.890844 -22.119141 1.904297 4.189453 51.063168 8.107644 2.471410 -95.380859 -4.140624 10.800782 2.000000 -2.000000 0.000000 -57.929688 30.556637 -50.703129 -115.034363 1.207787 -2.658405 50.672810 19.421703 1.075050 -2.000000 2.000000 0.000000 102.412109 -40.458984 -71.650391 110.952042 -1.236761 -3.001907 -45.943237 -21.021097 -13.825689 -19.604322 22.633650 -15.641291 99.554771 0.847489 -4.849384 40.270878 9.458796 -14.208494 -32.635941 -2.216928 13.153481 111.913582 -2.580598 4.157486 53.465588 -3.699506 27.703190 
-32.023651 28.620136 27.916609 -5.126953 1.914063 -54.511391 24.409590 -18.379530 -3.063741 -23.164064 2.265625 4.013672 51.063168 8.107644 2.471410 -103.076164 -1.132812 12.480276 2.000000 -2.000000 0.000000 -62.451172 28.154295 -46.249996 -109.050842 1.338056 -2.773544 50.592045 16.827116 4.718938 -2.000000 2.000000 0.000000 93.046875 -32.695313 -58.876953 107.083954 -1.297793 -2.624306 -49.962200 -20.122568 -9.730806 -22.887581 25.799011 -15.546185 101.123222 0.828042 -5.022075 39.424961 7.401880 -7.942894 -37.418343 -1.202060 14.705566 115.034569 -3.167113 4.285686 50.582752 -3.093541 26.342766 
-32.726871 27.469902 28.392096 -2.314453 5.791016 -57.186512 25.376415 -18.891079 -3.268080 -24.208986 2.812500 3.671875 51.063168 8.107644 2.471410 -110.615234 2.246094 13.662109 2.000000 -2.000000 0.000000 -66.669922 26.523439 -41.997593 -102.905243 0.915599 -2.973711 51.061989 14.160062 8.607514 -2.000000 2.000000 0.000000 86.074219 -23.759766 -48.705105 102.514465 -0.915378 -3.315619 -54.255280 -18.631813 -6.589782 -25.733765 28.578873 -14.794628 102.683510 1.149825 -4.760389 38.282318 4.554175 -1.237111 -41.848972 -0.021777 16.415785 117.996002 -3.235283 3.955770 47.509098 -3.084480 25.000139 
-33.310432 27.170544 28.986528 0.341797 8.945304 -56.883274 29.762276 -18.651070 -4.878355 -26.298828 3.906250 3.447931 51.063168 8.107644 2.471410 -104.072258 2.216797 12.861708 2.000000 -2.000000 0.000000 -62.246098 20.302736 -32.910152 -95.522369 0.643184 -2.948130 53.927021 17.168917 10.934315 -2.000000 2.000000 0.000000 75.810547 -13.808594 -38.964840 97.792686 -0.575100 -3.110310 -56.988472 -19.518513 -2.310155 -29.680611 28.619570 -15.542756 102.331024 0.954458 -4.998316 39.856926 5.036528 0.110393 -46.160641 0.458826 17.601694 119.060593 -3.166987 3.772457 45.029377 -2.597278 22.913361 
